<svg width="512" height="512" viewBox="0 0 512 512" fill="none" xmlns="http://www.w3.org/2000/svg">
<path d="M362.7 18.7485C387.7 -6.2495 428.3 -6.2495 453.3 18.7485L492.7 58.1785C517.7 83.1685 517.7 123.729 492.7 148.729L444.3 197.128L314.3 67.1485L362.7 18.7485ZM421.7 219.729L188.5 452.828C178.1 463.228 165.2 470.929 151.1 475.029L30.7698 510.428C22.3498 512.928 13.2398 510.629 7.02977 503.529C0.819574 498.229 -1.50223 489.129 0.975773 480.629L36.3698 360.328C40.5298 346.228 48.1598 333.328 58.5698 322.928L291.7 89.7685L421.7 219.729Z" fill="#F5F5F5"/>
</svg>
